<svg width="130" height="130" viewBox="0 0 130 130" fill="none" xmlns="http://www.w3.org/2000/svg">
<g opacity="0.1" clip-path="url(#clip0)">
<path fill-rule="evenodd" clip-rule="evenodd" d="M0.0150757 0V130H129.989V0H0.0150757ZM5.43063 5.55556H124.573V124.444H5.43063V5.55556Z" fill="#9D9D9D"/>
<path fill-rule="evenodd" clip-rule="evenodd" d="M36.7501 73.6111L32.461 90.2028C32.3711 90.6606 32.1923 90.8333 31.6562 90.8333H23.704C23.1679 90.8333 23.078 90.65 23.1679 90.0089L38.5367 34.8256C38.8053 33.8178 38.984 33.0222 39.0728 30.2728C39.0728 29.9061 39.2515 29.7228 39.5201 29.7228H50.8684C51.2248 29.7228 51.4035 29.815 51.4934 30.2728L68.7398 90.1C68.8286 90.5589 68.7398 90.8333 68.2925 90.8333H59.3568C58.9105 90.8333 58.6419 90.6606 58.5531 90.295L54.0853 73.6111H36.7501ZM51.9483 64.5922C50.4292 58.4506 46.7569 44.9806 45.4166 38.4722H45.3278C44.1661 44.9806 41.2331 55.97 38.9992 64.5867L51.9483 64.5922ZM80.9784 70.2778C81.0683 77.795 84.5537 82.8361 92.774 82.8361C95.9903 82.8361 98.7468 82.4 101.606 81.1161C101.964 80.9328 102.232 81.025 102.232 81.4828V88.45C102.232 89 102.054 89.2744 101.696 89.5494C98.8373 91.0167 95.276 91.6578 90.8082 91.6578C76.5116 91.6578 71.1497 80.8417 71.1497 68.7411C71.1497 55.6333 77.7616 44.9089 89.379 44.9089C101.174 44.9089 105.284 55.0833 105.284 63.3333C105.284 65.9917 105.105 68.1922 104.838 69.2C104.748 69.6578 104.569 69.8194 104.123 69.9106C103.051 70.0939 99.8337 70.2772 95.0973 70.2772H80.9784V70.2778ZM91.9693 62.6389C94.7393 62.6389 95.7233 62.6389 95.9909 62.5478C95.9909 62.1811 96.0808 61.8661 96.0808 61.5917C96.0808 58.5667 94.6505 53.0144 89.0216 53.0144C83.8389 53.0144 81.605 57.6889 81.0683 62.6389H91.9693Z" fill="#9D9D9D"/>
</g>
<defs>
<clipPath id="clip0">
<rect width="130" height="130" fill="white"/>
</clipPath>
</defs>
</svg>
