<svg width="130" height="130" viewBox="0 0 130 130" fill="none" xmlns="http://www.w3.org/2000/svg">
<g opacity="0.1" clip-path="url(#clip0)">
<path d="M5.41663 5.56757H124.584V124.432H5.41663V5.56757Z" fill="#9D9D9D"/>
<path d="M5.4166 5.56747H124.584V124.432H5.4166V5.56747ZM0 129.987H130V0.0131226H0V129.987ZM85.1501 46.3371C85.1501 45.8928 85.3125 45.6704 85.8002 45.6704H94.3043C94.7374 45.6704 94.9542 45.837 94.9542 46.3371V90.1617C94.9542 90.6057 94.8459 90.8281 94.3043 90.8281H85.9085C85.3669 90.8281 85.2042 90.5504 85.2042 90.1061V46.3371H85.1501ZM84.5543 33.7284C84.5543 30.1736 86.9917 28.063 90.0794 28.063C93.3836 28.063 95.6044 30.3402 95.6044 33.7284C95.6044 37.3943 93.2753 39.3939 89.9711 39.3939C86.8292 39.3941 84.5543 37.3943 84.5543 33.7284ZM60.1793 64.6112C58.6628 58.4457 55.0878 45.004 53.7334 38.5053H53.6251C52.4875 45.004 49.6169 56.0016 47.3419 64.6112H60.1793ZM45.121 73.6095L40.8417 90.2727C40.7334 90.7168 40.5709 90.8279 40.0293 90.8279H32.0668C31.5252 90.8279 31.4166 90.6613 31.5252 89.9948L46.9084 34.7836C47.1792 33.784 47.3417 32.8952 47.45 30.1736C47.45 29.7849 47.6125 29.6183 47.8833 29.6183H59.2583C59.6374 29.6183 59.7999 29.7293 59.9085 30.1736L77.1334 90.1059C77.2417 90.55 77.1334 90.8279 76.7001 90.8279H67.7083C67.275 90.8279 67.004 90.7168 66.8959 90.3283L62.4542 73.6095H45.121Z" fill="white"/>
</g>
<defs>
<clipPath id="clip0">
<rect width="130" height="130" fill="white"/>
</clipPath>
</defs>
</svg>
