<svg width="83" height="125" viewBox="0 0 83 125" fill="none" xmlns="http://www.w3.org/2000/svg">
<g opacity="0.1">
<path d="M20.7542 125C32.2059 125 41.5 115.667 41.5 104.167V83.3333H20.7542C9.30244 83.3333 0.00830078 92.6666 0.00830078 104.167C0.00830078 115.667 9.30244 125 20.7542 125Z" fill="#9D9D9D"/>
<path d="M0.00830078 62.5C0.00830078 51 9.30244 41.6667 20.7542 41.6667H41.5V83.3334H20.7542C9.30244 83.3334 0.00830078 74 0.00830078 62.5Z" fill="#9D9D9D" fill-opacity="0.75"/>
<path d="M0.00909424 20.8333C0.00909424 9.33333 9.30324 0 20.7549 0H41.5008V41.6667H20.7549C9.30324 41.6667 0.00909424 32.3333 0.00909424 20.8333Z" fill="#9D9D9D"/>
<path d="M41.5 0H62.2459C73.6976 0 82.9917 9.33333 82.9917 20.8333C82.9917 32.3333 73.6976 41.6667 62.2459 41.6667H41.5V0Z" fill="#9D9D9D" fill-opacity="0.9"/>
<path d="M82.9917 62.5C82.9917 74 73.6976 83.3334 62.2459 83.3334C50.7941 83.3334 41.5 74 41.5 62.5C41.5 51 50.7941 41.6667 62.2459 41.6667C73.6976 41.6667 82.9917 51 82.9917 62.5Z" fill="#9D9D9D"/>
</g>
</svg>
