<svg width="27" height="27" viewBox="0 0 27 27" fill="none" xmlns="http://www.w3.org/2000/svg">
<g clip-path="url(#clip0)">
<path d="M19.5971 19.5974H16.1892V14.2604C16.1892 12.9878 16.1665 11.3495 14.4168 11.3495C12.6418 11.3495 12.3702 12.7361 12.3702 14.1678V19.597H8.96245V8.62209H12.2339V10.1219H12.2798C12.6072 9.56213 13.0803 9.1016 13.6487 8.78939C14.2171 8.47719 14.8596 8.32501 15.5077 8.34906C18.9617 8.34906 19.5985 10.621 19.5985 13.5767L19.5971 19.5974ZM5.11714 7.12197C4.02491 7.12215 3.13932 6.23683 3.13914 5.1446C3.13896 4.05237 4.02419 3.16678 5.11642 3.1666C6.20865 3.16633 7.09424 4.05165 7.09442 5.14388C7.09452 5.66839 6.88625 6.17146 6.51544 6.54242C6.14463 6.91338 5.64165 7.12185 5.11714 7.12197ZM6.82112 19.5975H3.40966V8.62209H6.82103V19.5974L6.82112 19.5975ZM21.296 0.00167396H1.69724C0.770949 -0.00874792 0.0113203 0.733272 0 1.65956V21.3401C0.0109609 22.2668 0.7705 23.0096 1.69715 22.9999H21.296C22.2246 23.0114 22.9872 22.2686 23 21.3401V1.65803C22.9868 0.729947 22.2242 -0.0119823 21.296 0.000146615" fill="url(#paint0_linear)"/>
</g>
<defs>
<linearGradient id="paint0_linear" x1="11.5" y1="0" x2="11.5" y2="23" gradientUnits="userSpaceOnUse">
<stop stop-color="#874488"/>
<stop offset="1" stop-color="#976598"/>
</linearGradient>
<clipPath id="clip0">
<rect width="23" height="23" fill="white"/>
</clipPath>
</defs>
</svg>
