<svg width="130" height="130" viewBox="0 0 130 130" fill="none" xmlns="http://www.w3.org/2000/svg">
<g opacity="0.1" clip-path="url(#clip0)">
<path d="M5.41663 5.56757H124.584V124.432H5.41663V5.56757Z" fill="#9D9D9D"/>
<path d="M5.4166 5.56918H124.584V124.434H5.4166V5.56918ZM0 129.989H130V0.0148315H0V129.989ZM76.1043 54.726C76.1043 54.0593 76.1043 52.4487 75.8335 49.338C75.8335 48.8937 75.9419 48.7826 76.2668 48.616C79.571 47.2274 87.4252 44.7835 96.2001 44.7835C96.6334 44.7835 96.8503 44.8946 96.8503 45.3389V53.3373C96.8503 53.7816 96.6878 53.8927 96.2001 53.8927C92.7876 53.7261 87.7502 54.1704 85.8544 55.0034V90.0521C85.8544 90.4964 85.6919 90.7185 85.2042 90.7185H76.7001C76.2668 90.7185 76.05 90.5519 76.05 90.0521V54.7258H76.1043V54.726ZM36.0211 90.7185C35.3709 90.7185 35.2085 90.4411 35.2085 89.8855V30.1754C35.2085 29.7311 35.3709 29.4531 35.8586 29.4531H44.4167C44.8499 29.4531 44.9583 29.6198 44.9583 30.1198V81.5538H67.2748C67.7081 81.5538 67.8708 81.7204 67.7623 82.2205L66.4083 90.1078C66.2999 90.5519 66.0292 90.7743 65.5957 90.7743H36.0211V90.7185Z" fill="white"/>
</g>
<defs>
<clipPath id="clip0">
<rect width="130" height="130" fill="white"/>
</clipPath>
</defs>
</svg>
