<svg width="130" height="130" viewBox="0 0 130 130" fill="none" xmlns="http://www.w3.org/2000/svg">
<g opacity="0.1" clip-path="url(#clip0)">
<path d="M5.4166 5.56912H124.584V124.434H5.4166V5.56912ZM0 129.989H130V0.0147705H0V129.989ZM78.0002 54.8925C78.0002 54.2259 78.0002 52.6153 77.7294 49.5046C77.7294 49.0603 77.7835 48.9492 78.1626 48.7826C81.4668 47.3939 89.2127 44.9501 97.9876 44.9501C98.4209 44.9501 98.6375 45.0612 98.6375 45.5055V53.5594C98.6375 54.0037 98.4751 54.1148 98.0418 54.1148C94.6291 53.9482 89.7001 54.3925 87.8041 55.2255V90.2186C87.8041 90.6627 87.6416 90.8851 87.154 90.8851H78.6501C78.2168 90.8851 77.9999 90.7185 77.9999 90.2186V54.8925H78.0002ZM43.3335 59.947C44.5792 60.0581 45.5542 60.0581 47.7211 60.0581C54.0586 60.0581 60.017 57.7809 60.017 48.9494C60.017 41.8953 55.7919 38.3403 48.5335 38.3403C46.3669 38.3403 44.3086 38.4514 43.3335 38.5069V59.947ZM33.7459 30.453C33.7459 30.0642 33.8543 29.7863 34.2875 29.7863C37.7542 29.6197 42.8458 29.5086 48.2085 29.5086C63.2126 29.5086 69.7668 37.9513 69.7668 48.7826C69.7668 62.8907 59.8002 68.9451 47.5586 68.9451C45.5001 68.9451 44.796 68.8341 43.3335 68.8341V90.1631C43.3335 90.6074 43.171 90.8295 42.6834 90.8295H34.3417C33.9084 90.8295 33.6916 90.6629 33.6916 90.1631V30.453H33.7459Z" fill="#9D9D9D"/>
</g>
<defs>
<clipPath id="clip0">
<rect width="130" height="130" fill="white"/>
</clipPath>
</defs>
</svg>
