<svg width="130" height="130" viewBox="0 0 130 130" fill="none" xmlns="http://www.w3.org/2000/svg">
<g opacity="0.1" clip-path="url(#clip0)">
<path d="M5.4166 5.56949H124.584V124.434H5.4166V5.56949ZM0 129.989H130V0.0151367H0V129.989ZM87.6418 53.3376C83.3626 53.3376 81.9003 55.5593 81.9003 57.3923C81.9003 59.3918 82.8751 60.7805 88.6169 63.8354C97.121 68.0569 99.7753 72.1115 99.7753 78.0549C99.7753 86.9419 93.167 91.7187 84.2293 91.7187C79.5168 91.7187 75.4542 90.7188 73.1251 89.3304C72.746 89.1638 72.6918 88.8861 72.6918 88.4416V80.2766C72.6918 79.7212 72.9626 79.5544 73.342 79.8323C76.7545 82.1097 80.6544 83.1094 84.2293 83.1094C88.5086 83.1094 90.2961 81.2765 90.2961 78.7768C90.2961 76.7773 89.0502 74.9999 83.5792 72.1115C75.8875 68.3346 72.6918 64.5021 72.6918 58.1145C72.6918 50.9491 78.1628 45.006 87.6418 45.006C92.3002 45.006 95.5502 45.7282 97.3377 46.5612C97.771 46.8389 97.8793 47.2832 97.8793 47.672V55.2814C97.8793 55.7257 97.6085 56.0036 97.0667 55.8368C94.6834 54.282 91.1626 53.3376 87.6418 53.3376ZM41.0583 59.9474C42.3042 60.0585 43.2793 60.0585 45.4459 60.0585C51.7837 60.0585 57.7419 57.7812 57.7419 48.9498C57.7419 41.8957 53.4626 38.3407 46.2585 38.3407C44.0919 38.3407 42.0334 38.4518 41.0583 38.5073V59.9474ZM31.4169 30.4533C31.4169 30.0646 32.1753 29.7867 32.6084 29.7867C36.0752 29.6201 41.221 29.509 46.5835 29.509C61.5876 29.509 67.4375 37.9517 67.4375 48.7274C67.4375 62.8355 57.4709 68.89 45.2293 68.89C43.171 68.89 42.4669 68.7789 41.0042 68.7789V90.1079C41.0042 90.5522 40.8417 90.7744 40.3543 90.7744H32.0668C31.6335 90.7744 31.4166 90.6078 31.4166 90.1079V30.4533H31.4169Z" fill="#9D9D9D"/>
</g>
<defs>
<clipPath id="clip0">
<rect width="130" height="130" fill="white"/>
</clipPath>
</defs>
</svg>
