<svg width="303" height="541" viewBox="0 0 303 541" fill="none" xmlns="http://www.w3.org/2000/svg">
<path d="M606 270.07C606 229.9 555.727 191.83 478.649 168.222C496.436 89.6114 488.53 27.0688 453.697 7.04531C445.668 2.34843 436.28 0.1236 426.028 0.1236V27.6868C431.71 27.6868 436.28 28.7992 440.11 30.9005C456.909 40.5414 464.197 77.2512 458.514 124.467C457.156 136.086 454.932 148.322 452.215 160.806C428.004 154.873 401.571 150.3 373.778 147.333C357.103 124.467 339.81 103.702 322.393 85.5325C362.661 48.0811 400.459 27.5632 426.152 27.5632V0C392.183 0 347.715 24.226 302.753 66.2506C257.791 24.4732 213.323 0.49441 179.354 0.49441V28.0576C204.923 28.0576 242.845 48.452 283.113 85.6561C265.82 103.826 248.527 124.467 232.098 147.333C204.182 150.3 177.748 154.873 153.538 160.93C150.697 148.57 148.597 136.58 147.115 125.085C141.309 77.8692 148.474 41.1594 165.149 31.3949C168.855 29.1701 173.672 28.1812 179.354 28.1812V0.61801C168.978 0.61801 159.591 2.84284 151.438 7.53971C116.728 27.5632 108.947 89.9822 126.857 168.346C50.0265 192.077 0 230.023 0 270.07C0 310.241 50.2735 348.31 127.351 371.918C109.564 450.529 117.47 513.072 152.303 533.095C160.332 537.792 169.72 540.017 180.095 540.017C214.064 540.017 258.532 515.791 303.494 473.766C348.456 515.544 392.924 539.522 426.893 539.522C437.269 539.522 446.656 537.297 454.809 532.601C489.519 512.577 497.3 450.158 479.39 371.795C555.974 348.187 606 310.117 606 270.07ZM445.174 187.628C440.604 203.572 434.922 220.011 428.499 236.45C423.434 226.562 418.123 216.674 412.317 206.786C406.635 196.898 400.583 187.257 394.53 177.863C412.07 180.459 428.993 183.672 445.174 187.628ZM388.601 319.264C378.966 335.95 369.084 351.771 358.832 366.48C340.427 368.086 321.775 368.952 303 368.952C284.348 368.952 265.696 368.087 247.415 366.603C237.163 351.895 227.157 336.197 217.523 319.635C208.135 303.443 199.612 287.004 191.83 270.441C199.488 253.878 208.135 237.316 217.399 221.124C227.034 204.438 236.916 188.617 247.168 173.908C265.573 172.301 284.225 171.436 303 171.436C321.652 171.436 340.304 172.301 358.585 173.784C368.837 188.493 378.843 204.19 388.477 220.753C397.865 236.945 406.388 253.384 414.17 269.947C406.388 286.509 397.865 303.072 388.601 319.264ZM428.499 303.195C435.169 319.758 440.851 336.321 445.545 352.389C429.363 356.344 412.317 359.682 394.654 362.277C400.706 352.76 406.759 342.995 412.441 332.984C418.123 323.095 423.434 313.084 428.499 303.195ZM303.247 435.079C291.76 423.213 280.272 409.988 268.908 395.526C280.025 396.021 291.389 396.391 302.876 396.391C314.488 396.391 325.975 396.144 337.216 395.526C326.099 409.988 314.611 423.213 303.247 435.079ZM211.347 362.277C193.806 359.682 176.884 356.468 160.702 352.513C165.273 336.568 170.955 320.129 177.378 303.69C182.442 313.578 187.754 323.466 193.559 333.354C199.365 343.243 205.294 352.883 211.347 362.277ZM302.629 105.062C314.117 116.927 325.605 130.153 336.969 144.614C325.852 144.12 314.488 143.749 303 143.749C291.389 143.749 279.901 143.996 268.661 144.614C279.778 130.153 291.265 116.927 302.629 105.062ZM211.223 177.863C205.17 187.38 199.118 197.145 193.436 207.157C187.754 217.045 182.442 226.933 177.378 236.821C170.708 220.259 165.026 203.696 160.332 187.628C176.513 183.796 193.559 180.459 211.223 177.863ZM99.4354 332.613C55.7085 313.949 27.4219 289.476 27.4219 270.07C27.4219 250.665 55.7085 226.068 99.4354 207.528C110.058 202.954 121.669 198.875 133.651 195.044C140.692 219.27 149.956 244.485 161.444 270.317C150.079 296.027 140.939 321.118 134.022 345.22C121.793 341.388 110.182 337.186 99.4354 332.613ZM165.89 509.24C149.091 499.599 141.804 462.889 147.486 415.673C148.844 404.055 151.068 391.818 153.785 379.334C177.996 385.267 204.429 389.84 232.222 392.807C248.897 415.673 266.19 436.438 283.607 454.608C243.339 492.059 205.541 512.577 179.848 512.577C174.29 512.454 169.596 511.341 165.89 509.24ZM458.885 415.055C464.691 462.271 457.526 498.981 440.851 508.745C437.145 510.97 432.328 511.959 426.646 511.959C401.077 511.959 363.155 491.565 322.887 454.361C340.18 436.191 357.473 415.55 373.902 392.683C401.818 389.717 428.252 385.144 452.462 379.087C455.303 391.571 457.526 403.56 458.885 415.055ZM506.441 332.613C495.818 337.186 484.207 341.265 472.225 345.097C465.185 320.871 455.921 295.656 444.433 269.823C455.797 244.114 464.938 219.023 471.855 194.92C484.084 198.752 495.695 202.954 506.565 207.528C550.291 226.191 578.578 250.665 578.578 270.07C578.455 289.476 550.168 314.072 506.441 332.613Z" fill="#9D9D9D" fill-opacity="0.25"/>
<path d="M302.876 326.556C334.053 326.556 359.326 301.267 359.326 270.07C359.326 238.874 334.053 213.584 302.876 213.584C271.7 213.584 246.427 238.874 246.427 270.07C246.427 301.267 271.7 326.556 302.876 326.556Z" fill="#9D9D9D" fill-opacity="0.25"/>
</svg>
